<?xml version="1.0" encoding="UTF-8"?>
<!-- Generator: Adobe Illustrator 23.0.1, SVG Export Plug-In . SVG Version: 6.00 Build 0) -->
<svg xmlns="http://www.w3.org/2000/svg" xmlns:xlink="http://www.w3.org/1999/xlink" id="Layer_1" x="0px" y="0px" viewBox="0 0 299.1 52.1" style="enable-background:new 0 0 299.1 52.1;" xml:space="preserve"> <style type="text/css"> .st0{fill:#30348D;} </style> <g> <g> <path class="st0" d="M62.5,29.4c0-1.5,0.3-3,0.8-4.5c0.5-1.5,1.3-2.8,2.4-4c1-1.2,2.3-2.1,3.8-2.9c1.5-0.7,3.2-1.1,5.1-1.1 c2.3,0,4.2,0.5,5.8,1.5c1.6,1,2.8,2.3,3.6,3.9l-3.1,2.1c-0.4-0.7-0.8-1.4-1.3-1.9c-0.5-0.5-1-0.9-1.6-1.2s-1.2-0.5-1.8-0.6 c-0.6-0.1-1.2-0.2-1.8-0.2c-1.3,0-2.4,0.3-3.4,0.8c-1,0.5-1.8,1.2-2.5,2.1s-1.2,1.8-1.5,2.9c-0.3,1.1-0.5,2.1-0.5,3.2 c0,1.2,0.2,2.4,0.6,3.5c0.4,1.1,0.9,2.1,1.7,2.9c0.7,0.8,1.6,1.5,2.5,2c1,0.5,2.1,0.8,3.2,0.8c0.6,0,1.2-0.1,1.9-0.2 c0.6-0.2,1.3-0.4,1.9-0.7c0.6-0.3,1.1-0.8,1.6-1.3s0.9-1.1,1.2-1.9l3.3,1.9c-0.4,0.9-1,1.8-1.7,2.5c-0.7,0.7-1.5,1.3-2.4,1.8 c-0.9,0.5-1.9,0.9-2.9,1.1c-1,0.3-2,0.4-3,0.4c-1.7,0-3.3-0.4-4.8-1.1c-1.4-0.7-2.7-1.7-3.7-2.9s-1.9-2.6-2.4-4.1 C62.8,32.6,62.5,31,62.5,29.4z"/> <path class="st0" d="M88.8,16.5h3.8v20.3c0,0.7,0.2,1.2,0.5,1.6c0.4,0.4,0.8,0.6,1.5,0.6c0.3,0,0.6,0,0.9-0.1 c0.3-0.1,0.7-0.2,1-0.3l0.6,3c-0.6,0.3-1.2,0.5-2,0.6s-1.5,0.2-2.1,0.2c-1.3,0-2.4-0.4-3.1-1.1c-0.7-0.7-1.1-1.7-1.1-3.1V16.5z"/> <path class="st0" d="M100.5,20.7v-4.2h3.8v4.2H100.5z M100.5,42V23.7h3.8V42H100.5z"/> <path class="st0" d="M138.1,42h-3.8V31.8c0-1.7-0.3-3-0.8-3.7c-0.6-0.8-1.4-1.2-2.4-1.2c-1.1,0-2.1,0.4-3,1.2 c-0.9,0.8-1.5,1.8-1.9,3.1V42h-3.8V31.8c0-1.7-0.3-3-0.8-3.8c-0.6-0.8-1.4-1.2-2.4-1.2c-1.1,0-2.1,0.4-3,1.2 c-0.9,0.8-1.6,1.8-2,3.1V42h-3.8V23.7h3.5v3.7c0.7-1.3,1.7-2.3,2.9-3c1.2-0.7,2.5-1,4-1c1.5,0,2.7,0.4,3.6,1.2 c0.9,0.8,1.4,1.8,1.6,3c0.8-1.4,1.7-2.4,2.9-3.1c1.2-0.7,2.5-1.1,4-1.1c1.1,0,2,0.2,2.7,0.6c0.7,0.4,1.3,1,1.7,1.6 c0.4,0.7,0.7,1.5,0.9,2.4c0.2,0.9,0.2,1.8,0.2,2.9V42z"/> <path class="st0" d="M148.7,42.4c-0.9,0-1.7-0.1-2.5-0.4c-0.8-0.3-1.4-0.7-2-1.2c-0.5-0.5-1-1.1-1.3-1.8c-0.3-0.7-0.5-1.5-0.5-2.3 c0-0.9,0.2-1.6,0.6-2.3c0.4-0.7,0.9-1.3,1.6-1.8c0.7-0.5,1.5-0.9,2.4-1.2c0.9-0.3,2-0.4,3.1-0.4c0.9,0,1.7,0.1,2.6,0.2 c0.8,0.2,1.6,0.4,2.3,0.6v-1.3c0-1.4-0.4-2.4-1.2-3.2s-1.9-1.1-3.3-1.1c-1,0-1.9,0.2-2.9,0.5c-0.9,0.4-1.9,0.9-2.9,1.6l-1.2-2.4 c2.4-1.6,4.8-2.4,7.3-2.4c2.5,0,4.5,0.6,5.9,1.9c1.4,1.3,2.1,3.1,2.1,5.5v6.6c0,0.8,0.3,1.2,1,1.3V42c-0.4,0.1-0.7,0.1-1,0.1 s-0.5,0-0.8,0c-0.7,0-1.3-0.2-1.7-0.6c-0.4-0.4-0.7-0.9-0.8-1.4l-0.1-1.2c-0.8,1.1-1.8,1.9-3,2.5 C151.3,42.1,150.1,42.4,148.7,42.4z M149.7,39.5c0.9,0,1.8-0.2,2.6-0.5s1.5-0.8,1.9-1.4c0.5-0.4,0.7-0.9,0.7-1.3v-2.4 c-0.7-0.3-1.3-0.5-2.1-0.6c-0.7-0.1-1.5-0.2-2.2-0.2c-1.4,0-2.5,0.3-3.4,0.9c-0.9,0.6-1.3,1.4-1.3,2.4c0,0.9,0.3,1.7,1,2.3 C147.8,39.2,148.7,39.5,149.7,39.5z"/> <path class="st0" d="M174.8,41.1c-0.5,0.2-1.2,0.5-2,0.8c-0.9,0.3-1.8,0.4-2.8,0.4c-0.6,0-1.2-0.1-1.7-0.2c-0.5-0.2-1-0.4-1.4-0.7 s-0.7-0.8-1-1.3c-0.2-0.5-0.3-1.2-0.3-1.9V26.7h-2.4v-3h2.4v-6h3.8v6h4v3h-4v10.2c0,0.7,0.3,1.1,0.6,1.4c0.4,0.3,0.8,0.4,1.3,0.4 c0.5,0,1-0.1,1.5-0.3c0.5-0.2,0.9-0.3,1.1-0.5L174.8,41.1z"/> <path class="st0" d="M186.5,42.4c-1.4,0-2.7-0.3-3.9-0.8s-2.2-1.2-3-2c-0.8-0.9-1.5-1.9-1.9-3c-0.5-1.1-0.7-2.4-0.7-3.6 c0-1.3,0.2-2.5,0.7-3.7c0.5-1.2,1.1-2.2,1.9-3c0.8-0.9,1.8-1.6,3-2.1c1.2-0.5,2.5-0.8,3.9-0.8c1.4,0,2.7,0.3,3.9,0.8 c1.2,0.5,2.1,1.2,3,2c0.8,0.9,1.4,1.8,1.9,3c0.4,1.1,0.6,2.3,0.6,3.6c0,0.3,0,0.5,0,0.8c0,0.2,0,0.4-0.1,0.6h-14.7 c0.1,0.8,0.3,1.6,0.6,2.2c0.3,0.7,0.7,1.2,1.2,1.7c0.5,0.5,1.1,0.8,1.7,1.1c0.6,0.3,1.3,0.4,2,0.4c0.5,0,1-0.1,1.5-0.2 c0.5-0.1,1-0.3,1.4-0.6s0.8-0.5,1.1-0.9c0.3-0.3,0.6-0.7,0.8-1.2l3.3,0.9c-0.6,1.4-1.7,2.5-3.1,3.4 C190.2,41.9,188.5,42.4,186.5,42.4z M192.1,31.5c-0.1-0.8-0.3-1.5-0.6-2.1c-0.3-0.7-0.7-1.2-1.2-1.7c-0.5-0.5-1.1-0.8-1.7-1.1 c-0.7-0.3-1.3-0.4-2.1-0.4s-1.4,0.1-2,0.4c-0.6,0.3-1.2,0.6-1.7,1.1c-0.5,0.5-0.9,1-1.2,1.7c-0.3,0.7-0.5,1.4-0.6,2.1H192.1z"/> <path class="st0" d="M221.5,42V24.1l-7.4,13.5h-2.2l-7.4-13.5V42h-3.9V17.2h4.2l8.2,15.2l8.2-15.2h4.2V42H221.5z"/> <path class="st0" d="M237.4,42.4c-1.9,0-3.4-0.6-4.3-1.9c-1-1.2-1.5-3.1-1.5-5.6V23.7h3.8v10.4c0,3.3,1.2,4.9,3.5,4.9 c1.1,0,2.1-0.3,3.1-1c1-0.7,1.7-1.7,2.3-2.9V23.7h3.8v13.7c0,0.4,0.1,0.8,0.2,0.9c0.2,0.2,0.4,0.3,0.8,0.3V42 c-0.4,0.1-0.7,0.1-1,0.1c-0.3,0-0.5,0-0.7,0c-0.7,0-1.3-0.2-1.8-0.6c-0.5-0.4-0.7-0.9-0.8-1.5l-0.1-1.8c-0.8,1.3-1.9,2.3-3.2,3 C240.4,42,238.9,42.4,237.4,42.4z"/> <path class="st0" d="M260.9,42.4c-1.5,0-2.9-0.2-4.4-0.7s-2.7-1.2-3.8-2l1.5-2.4c1.1,0.8,2.2,1.4,3.3,1.8c1.1,0.4,2.2,0.6,3.3,0.6 c1.1,0,2-0.2,2.7-0.7c0.7-0.4,1-1.1,1-1.9c0-0.8-0.4-1.3-1.1-1.7c-0.7-0.4-1.9-0.7-3.5-1.2c-1.1-0.3-2.1-0.6-2.9-0.9 c-0.8-0.3-1.5-0.6-2-1s-0.9-0.8-1.1-1.3c-0.2-0.5-0.3-1.1-0.3-1.8c0-0.9,0.2-1.8,0.5-2.5c0.4-0.7,0.9-1.3,1.5-1.8 c0.6-0.5,1.4-0.9,2.3-1.1c0.9-0.3,1.8-0.4,2.8-0.4c1.4,0,2.7,0.2,3.8,0.6c1.2,0.4,2.3,1,3.2,1.8l-1.6,2.3c-1.7-1.4-3.5-2-5.4-2 c-1,0-1.8,0.2-2.5,0.6c-0.7,0.4-1,1.1-1,1.9c0,0.4,0.1,0.7,0.2,0.9s0.4,0.5,0.7,0.7c0.3,0.2,0.7,0.4,1.2,0.5 c0.5,0.2,1.1,0.3,1.9,0.5c1.2,0.3,2.3,0.6,3.2,0.9c0.9,0.3,1.6,0.7,2.2,1.1c0.6,0.4,1,0.9,1.3,1.4c0.3,0.5,0.4,1.2,0.4,2 c0,1.7-0.7,3.1-2,4.1C265,41.9,263.2,42.4,260.9,42.4z"/> <path class="st0" d="M272.9,20.7v-4.2h3.8v4.2H272.9z M272.9,42V23.7h3.8V42H272.9z"/> <path class="st0" d="M281.4,32.9c0-1.3,0.2-2.5,0.7-3.6c0.4-1.1,1.1-2.1,1.9-3c0.8-0.9,1.8-1.5,3-2c1.2-0.5,2.5-0.8,3.9-0.8 c1.9,0,3.5,0.4,4.9,1.2c1.4,0.8,2.4,1.9,3.1,3.3l-3.7,1.2c-0.4-0.8-1-1.4-1.8-1.8c-0.7-0.4-1.6-0.6-2.5-0.6 c-0.8,0-1.5,0.2-2.2,0.5c-0.7,0.3-1.2,0.7-1.7,1.3c-0.5,0.5-0.9,1.2-1.2,1.9c-0.3,0.7-0.4,1.6-0.4,2.5c0,0.9,0.1,1.7,0.4,2.5 c0.3,0.8,0.7,1.4,1.2,2c0.5,0.6,1.1,1,1.7,1.3c0.7,0.3,1.4,0.5,2.1,0.5c0.5,0,0.9-0.1,1.4-0.2c0.5-0.1,0.9-0.3,1.3-0.5 c0.4-0.2,0.7-0.5,1-0.8c0.3-0.3,0.5-0.6,0.6-1l3.8,1.1c-0.6,1.4-1.6,2.5-3,3.4c-1.4,0.9-3.1,1.3-5,1.3c-1.4,0-2.7-0.3-3.9-0.8 s-2.2-1.2-3-2.1c-0.8-0.9-1.5-1.9-1.9-3C281.6,35.4,281.4,34.1,281.4,32.9z"/> </g> </g> <path class="st0" d="M52,24.6c-0.3,0.3-0.6,0.5-0.9,0.8c-5,5-10.1,10.1-15.1,15.1C34.4,42,32.5,43,30.1,43c-3.3-0.1-6.3-2.9-6.6-6.1 c-0.3-3.7,2-7,5.5-7.7c2.9-0.5,5.2,0.4,7,2.6c0.1,0.1,0.2,0.2,0.2,0.2c3.1-3.1,6.1-6.1,9.1-9.1c-2.9-2.9-5.8-5.8-8.9-8.9 c-0.2,0.2-0.3,0.5-0.6,0.7c-4.3,4.3-8.5,8.5-12.8,12.8c-1.6,1.6-3.4,2.6-5.7,2.5c-3.4-0.1-6.4-2.8-6.7-6c-0.4-3.7,1.9-7,5.3-7.7 c2.9-0.6,5.2,0.3,7.1,2.6c0.1,0.1,0.2,0.2,0.3,0.3c0,0,0,0,0,0C28.5,14.2,33.6,9.1,38.7,4c-0.3-0.1-0.3-0.3-0.3-0.4 C35,1.9,31.1,0.9,27.1,0.9C13.2,0.9,2,12.1,2,26s11.2,25.1,25.1,25.1S52.1,39.9,52.1,26c0-0.5,0-0.9,0-1.4C52,24.7,52,24.7,52,24.6z "/> </svg>